<svg xmlns="http://www.w3.org/2000/svg" xmlns:xlink="http://www.w3.org/1999/xlink" width="1024" zoomAndPan="magnify" viewBox="0 0 768 767.999994" height="1024" preserveAspectRatio="xMidYMid meet" version="1.0"><defs><filter x="0%" y="0%" width="100%" height="100%" id="c0222edc92"><feColorMatrix values="0 0 0 0 1 0 0 0 0 1 0 0 0 0 1 0 0 0 1 0" color-interpolation-filters="sRGB"/></filter><mask id="9c35d04bdb"><g filter="url(#c0222edc92)"><rect x="-76.8" width="921.6" fill="#000000" y="-76.799999" height="921.599993" fill-opacity="0.59"/></g></mask><clipPath id="6d5668dcd3"><path d="M 0 0 L 768 0 L 768 768 L 0 768 Z M 0 0 " clip-rule="nonzero"/></clipPath><clipPath id="e4b617b72d"><path d="M 803.171875 -161.339844 L 881.609375 -82.90625 L -58.910156 857.613281 L -137.34375 779.175781 Z M 803.171875 -161.339844 " clip-rule="nonzero"/></clipPath><clipPath id="ec1c902b0d"><path d="M 0 0 L 768 0 L 768 768 L 0 768 Z M 0 0 " clip-rule="nonzero"/></clipPath><clipPath id="f81e21b5a1"><path d="M 803.171875 -161.339844 L 881.609375 -82.90625 L -58.910156 857.613281 L -137.34375 779.175781 Z M 803.171875 -161.339844 " clip-rule="nonzero"/></clipPath><clipPath id="42da8210ee"><rect x="0" width="768" y="0" height="768"/></clipPath><clipPath id="b4809141d6"><rect x="0" width="768" y="0" height="768"/></clipPath><mask id="97132c8ba8"><g filter="url(#c0222edc92)"><rect x="-76.8" width="921.6" fill="#000000" y="-76.799999" height="921.599993" fill-opacity="0.59"/></g></mask><clipPath id="40d13f0cb6"><path d="M 0 0 L 768 0 L 768 768 L 0 768 Z M 0 0 " clip-rule="nonzero"/></clipPath><clipPath id="33fe395d0b"><path d="M 880.238281 -36.277344 L 905.339844 -11.171875 L -35.175781 929.34375 L -60.277344 904.242188 Z M 880.238281 -36.277344 " clip-rule="nonzero"/></clipPath><clipPath id="0f7d35c093"><path d="M 0 0 L 768 0 L 768 768 L 0 768 Z M 0 0 " clip-rule="nonzero"/></clipPath><clipPath id="01d41279d4"><path d="M 880.238281 -36.277344 L 905.339844 -11.171875 L -35.175781 929.34375 L -60.277344 904.242188 Z M 880.238281 -36.277344 " clip-rule="nonzero"/></clipPath><clipPath id="65799549aa"><rect x="0" width="768" y="0" height="768"/></clipPath><clipPath id="a573482216"><rect x="0" width="768" y="0" height="768"/></clipPath></defs><g mask="url(#9c35d04bdb)"><g transform="matrix(1, 0, 0, 1, 0, -0.000000000000057351)"><g clip-path="url(#b4809141d6)"><g clip-path="url(#6d5668dcd3)"><g clip-path="url(#e4b617b72d)"><g transform="matrix(1, 0, 0, 1, 0, -0.000000000000057351)"><g clip-path="url(#42da8210ee)"><g clip-path="url(#ec1c902b0d)"><g clip-path="url(#f81e21b5a1)"><path fill="#a08fde" d="M 803.171875 -161.339844 L 881.609375 -82.90625 L -59 857.703125 L -137.4375 779.269531 Z M 803.171875 -161.339844 " fill-opacity="1" fill-rule="nonzero"/></g></g></g></g></g></g></g></g></g><g mask="url(#97132c8ba8)"><g transform="matrix(1, 0, 0, 1, 0, -0.000000000000057351)"><g clip-path="url(#a573482216)"><g clip-path="url(#40d13f0cb6)"><g clip-path="url(#33fe395d0b)"><g transform="matrix(1, 0, 0, 1, 0, -0.000000000000057351)"><g clip-path="url(#65799549aa)"><g clip-path="url(#0f7d35c093)"><g clip-path="url(#01d41279d4)"><path fill="#a08fde" d="M 880.238281 -36.277344 L 905.339844 -11.171875 L -35.195312 929.363281 L -60.296875 904.261719 Z M 880.238281 -36.277344 " fill-opacity="1" fill-rule="nonzero"/></g></g></g></g></g></g></g></g></g></svg>